#!OML:ASF H:\ManfredETheater\Project 1\Capture day 1\Session 1\subject.ASF
:FULLY-SPECIFIED
:DEGREES
144
root 8.70949 17.1638 -21.1928 -146.465 16.4948 -156.826
lowerback 16.9041 0.584346 10.1548
upperback 5.54213 3.89429 6.1878
thorax -3.34434 2.39235 0.0848257
lowerneck -5.62851 1.43378 -0.290084
upperneck -9.13348 2.47884 0.633061
head -1.91428 1.46244 0.237319
rclavicle -6.75868e-015 1.06549e-013
rhumerus -44.2106 -4.91449 -65.2545
rradius 32.0933
rwrist 12.6923
rhand -18.5178 -7.76715
rfingers 7.12502
rthumb 7.77054 -37.6044
lclavicle -6.75868e-015 1.06549e-013
lhumerus -56.6345 6.7658 87.7815
lradius 71.8579
lwrist 11.6511
lhand -23.7953 4.32772
lfingers 7.12502
lthumb 2.67503 34.2907
rfemur 6.11088 0.856083 24.0185
rtibia 40.3492
rfoot 23.013 -18.781
rtoes -14.245
lfemur -67.5223 2.90951 -12.27
ltibia 27.7849
lfoot -11.5081 2.75062
ltoes -2.2102
145
root 8.83543 17.09 -21.8136 -146.924 17.2084 -156.373
lowerback 16.2483 0.674145 10.0178
upperback 5.31143 3.85136 6.133
thorax -3.24656 2.34686 0.13068
lowerneck -5.85199 1.84784 -0.0703222
upperneck -7.89641 2.93011 0.534129
head -1.4769 1.64911 0.182795
rclavicle -6.0033e-014 -5.76476e-014
rhumerus -43.5312 -4.41473 -65.1735
rradius 32.8252
rwrist 12.4999
rhand -18.5044 -7.80983
rfingers 7.12502
rthumb 7.7835 -37.6466
lclavicle -6.0033e-014 -5.76476e-014
lhumerus -56.6359 7.20441 87.6011
lradius 72.6563
lwrist 12.1795
lhand -24.1233 4.67309
lfingers 7.12502
lthumb 2.35826 34.6398
rfemur 6.16977 1.51476 22.9575
rtibia 43.714
rfoot 22.7595 -18.0739
rtoes -14.9502
lfemur -66.9293 3.75421 -13.1364
ltibia 28.5162
lfoot -10.9774 2.05561
ltoes -0.702269
146
root 8.95971 17.0101 -22.433 -147.547 17.8714 -156.031
lowerback 15.7419 0.690996 9.85524
upperback 5.08856 3.73886 6.08586
thorax -3.22543 2.26659 0.204365
lowerneck -6.04191 2.27159 0.161765
upperneck -6.70529 3.39992 0.411966
head -1.06679 1.85016 0.123085
rclavicle 2.38542e-015 9.93923e-015
rhumerus -42.9142 -3.94363 -65.1071
rradius 33.7758
rwrist 12.0976
rhand -18.4876 -7.77875
rfingers 7.12502
rthumb 7.79977 -37.6149
lclavicle 2.38542e-015 9.93923e-015
lhumerus -56.4369 7.50611 87.4169
lradius 73.1534
lwrist 12.5609
lhand -24.4471 4.99007
lfingers 7.12502
lthumb 2.04552 34.96
rfemur 6.13553 2.0645 21.8507
rtibia 47.3
rfoot 22.5318 -17.7251
rtoes -15.3108
lfemur -66.3828 4.73847 -14.3957
ltibia 30.1198
lfoot -10.1584 0.712462
ltoes 2.06478
147
root 9.08192 16.9279 -23.0472 -148.362 18.4232 -155.806
lowerback 15.4279 0.62732 9.67797
upperback 4.88138 3.55651 6.05402
thorax -3.29603 2.15242 0.306154
lowerneck -6.1776 2.69018 0.42663
upperneck -5.60798 3.87021 0.257382
head -0.69944 2.05628 0.0512507
rclavicle -1.78906e-014 -1.55052e-013
rhumerus -42.3869 -3.55484 -65.05
rradius 34.9737
rwrist 11.467
rhand -18.4791 -7.69942
rfingers 7.12502
rthumb 7.80793 -37.5352
lclavicle -1.78906e-014 -1.55052e-013
lhumerus -55.9905 7.64318 87.2385
lradius 73.3224
lwrist 12.7669
lhand -24.717 5.25678
lfingers 7.12502
lthumb 1.78489 35.2291
rfemur 6.04182 2.50229 20.7619
rtibia 51.0514
rfoot 22.407 -17.7151
rtoes -15.294
lfemur -65.83 5.6846 -15.7649
ltibia 32.5347
lfoot -8.99021 -0.889583
ltoes 6.0587
148
root 9.2019 16.8466 -23.6521 -149.41 18.8364 -155.791
lowerback 15.3465 0.483725 9.39535
upperback 4.68922 3.29213 6.02604
thorax -3.48578 1.99646 0.475522
lowerneck -6.24706 3.09197 0.738591
upperneck -4.63812 4.32626 0.0642012
head -0.383517 2.25962 -0.0379678
rclavicle -3.02153e-014 -3.33958e-014
rhumerus -41.9837 -3.28502 -65.0016
rradius 36.4301
rwrist 10.6545
rhand -18.5772 -7.52767
rfingers 7.12502
rthumb 7.71326 -37.367
lclavicle -3.02153e-014 -3.33958e-014
lhumerus -55.2568 7.59715 87.0784
lradius 73.1484
lwrist 12.7859
lhand -24.8996 5.46595
lfingers 7.12502
lthumb 1.60853 35.4396
rfemur 5.88872 2.80463 19.6502
rtibia 54.9501
rfoot 22.3745 -18.0039
rtoes -14.8588
lfemur -65.1824 6.40312 -17.1065
ltibia 35.5875
lfoot -7.64262 -2.35977
ltoes 11.1837
149
root 9.31955 16.7655 -24.2457 -150.688 19.0688 -156.025
lowerback 15.4639 0.261818 8.99591
upperback 4.51665 2.93687 5.99414
thorax -3.76983 1.79591 0.717092
lowerneck -6.21413 3.46399 1.08887
upperneck -3.84685 4.7531 -0.1589
head -0.134147 2.45243 -0.144429
rclavicle -2.78299e-014 -4.69132e-014
rhumerus -41.7292 -3.15387 -64.9656
rradius 38.1725
rwrist 9.65979
rhand -18.7665 -7.31054
rfingers 7.12502
rthumb 7.53053 -37.1565
lclavicle -2.78299e-014 -4.69132e-014
lhumerus -54.2002 7.35891 86.9499
lradius 72.6373
lwrist 12.6134
lhand -24.9738 5.60752
lfingers 7.12502
lthumb 1.53685 35.5817
rfemur 5.66137 2.93054 18.4911
rtibia 58.9843
rfoot 22.441 -18.4432
rtoes -14.23
lfemur -64.3381 6.75126 -18.3236
ltibia 39.0551
lfoot -6.36491 -3.57174
ltoes 17.1341
150
root 9.43534 16.6861 -24.8255 -152.189 19.114 -156.584
lowerback 15.7552 -0.0207665 8.40254
upperback 4.36382 2.489 5.93586
thorax -4.13255 1.55023 1.05592
lowerneck -6.09521 3.79526 1.47367
upperneck -3.24215 5.13652 -0.404778
head 0.0504332 2.62732 -0.267694
rclavicle -1.51076e-014 3.10104e-014
rhumerus -41.6254 -3.19647 -64.9447
rradius 40.1761
rwrist 8.54319
rhand -19.0785 -7.06129
rfingers 7.12502
rthumb 7.22936 -36.9178
lclavicle -1.51076e-014 3.10104e-014
lhumerus -52.7917 6.91018 86.8621
lradius 71.8149
lwrist 12.2611
lhand -24.9218 5.70242
lfingers 7.12502
lthumb 1.58711 35.6763
rfemur 5.32049 2.85005 17.2064
rtibia 63.1426
rfoot 22.5905 -18.8882
rtoes -12.9779
lfemur -63.2309 6.67546 -19.4877
ltibia 42.6716
lfoot -5.50701 -4.40605
ltoes 23.116
151
root 9.54932 16.6092 -25.3904 -153.825 18.9797 -157.434
lowerback 16.1448 -0.332781 7.63198
upperback 4.22241 1.97563 5.84637
thorax -4.53379 1.2748 1.48009
lowerneck -5.90251 4.07813 1.87031
upperneck -2.80216 5.46625 -0.653583
head 0.176041 2.7787 -0.398661
rclavicle 4.92986e-014 1.59028e-014
rhumerus -41.6834 -3.36952 -64.9599
rradius 42.4238
rwrist 7.31959
rhand -19.5545 -6.81714
rfingers 7.12502
rthumb 6.7699 -36.6889
lclavicle 4.92986e-014 1.59028e-014
lhumerus -51.0339 6.23645 86.8204
lradius 70.7317
lwrist 11.7582
lhand -24.7388 5.75453
lfingers 7.12502
lthumb 1.76383 35.727
rfemur 4.77858 2.57536 15.7884
rtibia 67.3996
rfoot 22.756 -19.1778
rtoes -11.321
lfemur -61.8445 6.24104 -20.6503
ltibia 46.1869
lfoot -5.35975 -4.84783
ltoes 28.2294
